<?xml version="1.0" encoding="UTF-8" standalone="no"?>
<!DOCTYPE svg PUBLIC "-//W3C//DTD SVG 1.1//EN"
 "http://www.w3.org/Graphics/SVG/1.1/DTD/svg11.dtd">
<!-- Generated by graphviz version 2.44.1 (20200629.0846)
 -->
<!-- Title: g Pages: 1 -->
<svg width="434pt" height="498pt"
 viewBox="0.00 0.00 434.00 497.60" xmlns="http://www.w3.org/2000/svg" xmlns:xlink="http://www.w3.org/1999/xlink">
<g id="graph0" class="graph" transform="scale(1 1) rotate(0) translate(4 493.6)">
<title>g</title>
<polygon fill="white" stroke="transparent" points="-4,4 -4,-493.6 430,-493.6 430,4 -4,4"/>
<g id="clust1" class="cluster">
<title>cluster_104256825</title>
<polygon fill="#ececec" stroke="black" points="8,-8 8,-481.6 418,-481.6 418,-8 8,-8"/>
<text text-anchor="middle" x="30.78" y="-465" font-family="Times New Roman,serif" font-size="14.00">multi</text>
</g>
<g id="clust2" class="cluster">
<title>cluster_626513417</title>
<polygon fill="#d8d8d8" stroke="black" points="16,-16 16,-448.8 410,-448.8 410,-16 16,-16"/>
<text text-anchor="middle" x="61.7" y="-432.2" font-family="Times New Roman,serif" font-size="14.00">a_inheritance</text>
</g>
<!-- Human603494902 -->
<g id="node1" class="node">
<title>Human603494902</title>
<polygon fill="#ffffff" stroke="transparent" points="227,-416 97,-416 97,-294 227,-294 227,-416"/>
<text text-anchor="start" x="102" y="-398.4" font-family="Times New Roman,serif" font-size="14.00">(C)Human</text>
<text text-anchor="start" x="102" y="-374.4" font-family="Times New Roman,serif" font-size="14.00">&#45; &#160;&#160;age: int [1]</text>
<text text-anchor="start" x="101.54" y="-350.4" font-family="Times New Roman,serif" font-size="14.00">&#45; &#160;&#160;name: String [0..1]</text>
<text text-anchor="start" x="102" y="-326.4" font-family="Times New Roman,serif" font-size="14.00">+ eat()</text>
<text text-anchor="start" x="102" y="-302.4" font-family="Times New Roman,serif" font-size="14.00">+ sleep()</text>
<polygon fill="black" stroke="black" points="97,-391 97,-391 227,-391 227,-391 97,-391"/>
<polygon fill="black" stroke="black" points="97,-343 97,-343 227,-343 227,-343 97,-343"/>
<polygon fill="none" stroke="black" points="97,-294 97,-416 227,-416 227,-294 97,-294"/>
</g>
<!-- Man603494902 -->
<g id="node2" class="node">
<title>Man603494902</title>
<polygon fill="#ffffff" stroke="transparent" points="126,-257 24,-257 24,-183 126,-183 126,-257"/>
<text text-anchor="start" x="29" y="-239.4" font-family="Times New Roman,serif" font-size="14.00">(C)Man</text>
<text text-anchor="start" x="28.93" y="-215.4" font-family="Times New Roman,serif" font-size="14.00">&#45; &#160;&#160;power: int [1]</text>
<text text-anchor="start" x="29" y="-191.4" font-family="Times New Roman,serif" font-size="14.00">+ run()</text>
<polygon fill="black" stroke="black" points="24,-232 24,-232 126,-232 126,-232 24,-232"/>
<polygon fill="black" stroke="black" points="24,-208 24,-208 126,-208 126,-208 24,-208"/>
<polygon fill="none" stroke="black" points="24,-183 24,-257 126,-257 126,-183 24,-183"/>
</g>
<!-- Human603494902&#45;&gt;Man603494902 -->
<g id="edge1" class="edge">
<title>Human603494902&#45;&gt;Man603494902</title>
<path fill="none" stroke="black" d="M116.99,-285.2C110.64,-275.49 104.34,-265.85 98.62,-257.1"/>
<polygon fill="none" stroke="black" points="114.17,-287.27 122.57,-293.73 120.03,-283.44 114.17,-287.27"/>
</g>
<!-- SuperMan603494902 -->
<g id="node3" class="node">
<title>SuperMan603494902</title>
<polygon fill="#ffffff" stroke="transparent" points="186,-146 62,-146 62,-24 186,-24 186,-146"/>
<text text-anchor="start" x="67" y="-128.4" font-family="Times New Roman,serif" font-size="14.00">(C)SuperMan</text>
<text text-anchor="start" x="66.65" y="-104.4" font-family="Times New Roman,serif" font-size="14.00">&#45; &#160;&#160;isFly: boolean [1]</text>
<text text-anchor="start" x="67" y="-80.4" font-family="Times New Roman,serif" font-size="14.00">+ run()</text>
<text text-anchor="start" x="67" y="-56.4" font-family="Times New Roman,serif" font-size="14.00">+ sleep()</text>
<text text-anchor="start" x="67" y="-32.4" font-family="Times New Roman,serif" font-size="14.00">+ space()</text>
<polygon fill="black" stroke="black" points="62,-121 62,-121 186,-121 186,-121 62,-121"/>
<polygon fill="black" stroke="black" points="62,-97 62,-97 186,-97 186,-97 62,-97"/>
<polygon fill="none" stroke="black" points="62,-24 62,-146 186,-146 186,-24 62,-24"/>
</g>
<!-- Human603494902&#45;&gt;SuperMan603494902 -->
<g id="edge2" class="edge">
<title>Human603494902&#45;&gt;SuperMan603494902</title>
<path fill="none" stroke="black" d="M153.47,-293.86C147.7,-253.14 140.05,-199.19 133.99,-156.46"/>
<polygon fill="black" stroke="black" points="137.43,-155.82 132.57,-146.41 130.5,-156.8 137.43,-155.82"/>
<text text-anchor="middle" x="195.86" y="-215.8" font-family="Times New Roman,serif" font-size="14.00">sleep() &#45;&gt; sleep()</text>
</g>
<!-- Woman603494902 -->
<g id="node4" class="node">
<title>Woman603494902</title>
<polygon fill="#ffffff" stroke="transparent" points="402,-245 276,-245 276,-195 402,-195 402,-245"/>
<text text-anchor="start" x="281" y="-227.4" font-family="Times New Roman,serif" font-size="14.00">(C)Woman</text>
<text text-anchor="start" x="280.87" y="-203.4" font-family="Times New Roman,serif" font-size="14.00">&#45; &#160;&#160;food: String [0..1]</text>
<polygon fill="black" stroke="black" points="276,-220 276,-220 402,-220 402,-220 276,-220"/>
<polygon fill="none" stroke="black" points="276,-195 276,-245 402,-245 402,-195 276,-195"/>
</g>
<!-- Human603494902&#45;&gt;Woman603494902 -->
<g id="edge3" class="edge">
<title>Human603494902&#45;&gt;Woman603494902</title>
<path fill="none" stroke="black" d="M235.2,-298.99C260.21,-280.2 286.91,-260.14 306.96,-245.08"/>
<polygon fill="none" stroke="black" points="233.05,-296.24 227.15,-305.04 237.25,-301.83 233.05,-296.24"/>
</g>
<!-- Man603494902&#45;&gt;SuperMan603494902 -->
<g id="edge4" class="edge">
<title>Man603494902&#45;&gt;SuperMan603494902</title>
<path fill="none" stroke="black" d="M91.91,-173.09C95.12,-164.38 98.52,-155.16 101.86,-146.09"/>
<polygon fill="none" stroke="black" points="88.56,-172.06 88.39,-182.66 95.13,-174.48 88.56,-172.06"/>
</g>
<!-- WonderWoman603494902 -->
<g id="node5" class="node">
<title>WonderWoman603494902</title>
<polygon fill="#ffffff" stroke="transparent" points="402,-110 264,-110 264,-60 402,-60 402,-110"/>
<text text-anchor="start" x="269" y="-92.4" font-family="Times New Roman,serif" font-size="14.00">(C)WonderWoman</text>
<text text-anchor="start" x="268.65" y="-68.4" font-family="Times New Roman,serif" font-size="14.00">&#45; &#160;&#160;isSwim: boolean [1]</text>
<polygon fill="black" stroke="black" points="264,-85 264,-85 402,-85 402,-85 264,-85"/>
<polygon fill="none" stroke="black" points="264,-60 264,-110 402,-110 402,-60 264,-60"/>
</g>
<!-- Woman603494902&#45;&gt;WonderWoman603494902 -->
<g id="edge5" class="edge">
<title>Woman603494902&#45;&gt;WonderWoman603494902</title>
<path fill="none" stroke="black" d="M337.46,-184.76C336.4,-161.47 335.04,-131.21 334.1,-110.36"/>
<polygon fill="none" stroke="black" points="333.97,-185.08 337.91,-194.91 340.96,-184.77 333.97,-185.08"/>
</g>
</g>
</svg>
